<?xml version="1.0" standalone="no"?>
<!DOCTYPE svg PUBLIC "-//W3C//DTD SVG 20010904//EN"
 "http://www.w3.org/TR/2001/REC-SVG-20010904/DTD/svg10.dtd">
<svg version="1.0" xmlns="http://www.w3.org/2000/svg"
 width="320.000000pt" height="240.000000pt" viewBox="0 0 320.000000 240.000000"
 preserveAspectRatio="xMidYMid meet">

<g transform="translate(0.000000,240.000000) scale(0.100000,-0.100000)"
fill="#000000" stroke="none">
<path d="M900 1379 l0 -251 109 4 c106 3 111 4 141 33 43 41 53 89 48 241 -3
120 -6 134 -28 168 -31 45 -66 56 -182 56 l-88 0 0 -251z m179 172 c26 -26 35
-91 29 -211 -6 -123 -20 -150 -78 -150 l-40 0 0 190 0 190 35 0 c21 0 43 -8
54 -19z"/>
<path d="M1540 1589 l0 -40 43 3 c41 3 42 4 45 41 l3 37 -45 0 -46 0 0 -41z"/>
<path d="M1320 1480 c-40 -10 -70 -42 -70 -76 0 -21 5 -24 39 -24 35 0 39 3
45 31 5 26 10 30 33 27 25 -3 28 -7 31 -45 3 -43 3 -43 -31 -43 -84 0 -127
-40 -127 -120 0 -98 71 -141 139 -84 30 25 31 25 31 5 0 -18 6 -21 40 -21 l40
0 -3 151 c-3 151 -4 152 -31 175 -15 13 -38 24 -51 24 -13 0 -29 2 -37 4 -7 2
-29 0 -48 -4z m80 -223 c0 -55 -12 -77 -42 -77 -21 0 -38 29 -38 64 0 31 32
66 60 66 17 0 20 -7 20 -53z"/>
<path d="M2131 1480 c-40 -10 -66 -35 -75 -72 -6 -27 -5 -28 38 -28 41 0 45 2
48 28 2 20 9 28 27 30 29 4 41 -12 41 -55 0 -31 -2 -33 -35 -33 -45 0 -100
-23 -113 -47 -25 -46 -18 -128 14 -160 21 -21 32 -24 62 -19 20 3 45 15 55 27
15 19 23 14 18 -13 0 -5 18 -8 42 -8 l42 0 -3 137 c-2 76 -8 150 -13 164 -17
43 -83 65 -148 49z m79 -209 c0 -76 -33 -114 -68 -79 -33 33 1 118 48 118 17
0 20 -7 20 -39z"/>
<path d="M1540 1305 l0 -175 45 0 45 0 0 175 0 175 -45 0 -45 0 0 -175z"/>
<path d="M1663 1448 c3 -18 16 -97 28 -175 l22 -143 52 0 52 0 13 110 c7 61
15 109 17 106 2 -2 8 -44 13 -93 13 -123 13 -123 70 -123 l47 0 13 78 c12 77
36 206 45 250 5 20 2 22 -34 22 -37 0 -39 -2 -44 -37 -4 -21 -9 -75 -13 -121
-4 -45 -10 -85 -14 -87 -7 -4 -21 74 -36 193 l-7 52 -38 0 c-21 0 -40 -3 -43
-8 -2 -4 -10 -54 -16 -112 -18 -162 -23 -167 -39 -40 -23 172 -18 160 -58 160
-34 0 -35 -1 -30 -32z"/>
<path d="M918 1010 c-20 -12 -32 -92 -20 -135 10 -38 53 -61 82 -45 24 13 28
60 5 60 -9 0 -15 -9 -15 -21 0 -14 -5 -19 -17 -17 -14 2 -19 15 -21 52 -5 79
16 128 33 76 8 -25 35 -26 35 -2 0 37 -44 54 -82 32z"/>
<path d="M1240 1005 c0 -8 7 -15 15 -15 8 0 15 7 15 15 0 8 -7 15 -15 15 -8 0
-15 -7 -15 -15z"/>
<path d="M1470 925 c0 -78 3 -95 15 -95 12 0 15 17 15 95 0 78 -3 95 -15 95
-12 0 -15 -17 -15 -95z"/>
<path d="M1570 925 c0 -78 3 -95 15 -95 12 0 15 14 16 63 1 61 1 61 11 22 5
-22 11 -50 14 -62 10 -48 44 -20 44 35 0 15 5 34 10 42 7 11 10 -2 10 -42 0
-45 3 -58 15 -58 12 0 15 17 15 95 0 94 0 95 -24 95 -19 0 -26 -7 -30 -30 -3
-16 -9 -44 -12 -61 -8 -41 -20 -22 -29 43 -6 42 -10 48 -31 48 -24 0 -24 -1
-24 -95z"/>
<path d="M1930 925 c0 -78 3 -95 15 -95 10 0 15 11 16 33 l0 32 16 -32 c10
-20 24 -33 36 -33 18 0 18 1 -3 35 -20 32 -20 36 -6 57 19 27 20 38 3 38 -7 0
-20 -12 -29 -27 l-17 -28 -1 58 c0 44 -3 57 -15 57 -12 0 -15 -17 -15 -95z"/>
<path d="M1300 976 c0 -8 -6 -17 -12 -20 -10 -5 -10 -7 0 -12 7 -3 12 -26 12
-60 0 -52 1 -54 27 -54 21 0 24 3 15 12 -15 15 -16 95 0 100 7 3 5 12 -8 26
-21 25 -34 28 -34 8z"/>
<path d="M2145 968 c-12 -15 -14 -23 -7 -26 7 -2 12 -26 12 -58 0 -52 1 -54
27 -54 21 0 24 3 15 12 -14 14 -16 90 -3 104 5 5 2 16 -8 26 -16 16 -18 16
-36 -4z"/>
<path d="M1026 945 c-8 -23 -8 -25 8 -25 8 0 17 7 20 16 7 17 26 10 26 -10 0
-8 -13 -16 -30 -19 -25 -6 -30 -11 -30 -36 0 -33 23 -57 42 -45 7 5 21 7 31 6
16 -3 18 4 15 60 l-3 63 -36 3 c-26 2 -38 -1 -43 -13z m52 -67 c-4 -27 -28
-36 -28 -10 0 20 8 32 22 32 5 0 8 -10 6 -22z"/>
<path d="M1130 865 c0 -78 3 -95 15 -95 10 0 15 10 15 31 0 23 4 30 18 27 30
-5 42 12 42 57 0 65 -7 75 -51 75 l-39 0 0 -95z m58 28 c-3 -55 -21 -65 -26
-15 -4 39 3 62 18 62 7 0 10 -18 8 -47z"/>
<path d="M1240 895 c0 -51 3 -65 15 -65 12 0 15 14 15 65 0 51 -3 65 -15 65
-12 0 -15 -14 -15 -65z"/>
<path d="M1366 944 c-9 -25 1 -30 22 -11 19 17 32 14 32 -9 0 -7 -12 -14 -27
-16 -24 -3 -28 -8 -31 -40 -3 -37 4 -45 33 -38 6 2 20 2 33 2 20 -2 22 3 22
47 0 27 -3 56 -6 65 -8 22 -70 22 -78 0z m54 -69 c0 -14 -6 -25 -13 -25 -21 0
-27 11 -16 31 14 27 29 23 29 -6z"/>
<path d="M1746 945 c-8 -23 -8 -25 8 -25 8 0 17 7 20 16 7 17 26 10 26 -10 0
-8 -13 -16 -30 -19 -26 -6 -30 -11 -30 -41 0 -35 0 -35 45 -34 l46 1 -3 61 -3
61 -36 3 c-26 2 -38 -1 -43 -13z m51 -79 c-4 -9 -11 -16 -17 -16 -11 0 -14 33
-3 44 11 10 26 -11 20 -28z"/>
<path d="M1850 894 c0 -50 3 -64 15 -64 11 0 15 12 15 45 0 34 5 47 20 55 27
14 18 27 -20 28 l-30 1 0 -65z"/>
<path d="M2040 941 c-15 -29 -12 -87 6 -105 18 -19 28 -20 55 -6 23 13 26 40
4 40 -8 0 -15 -7 -15 -16 0 -23 -24 -11 -28 14 -3 17 3 21 31 24 32 3 33 4 25
36 -7 27 -13 32 -38 32 -19 0 -33 -7 -40 -19z m54 -22 c-8 -14 -34 -11 -34 4
0 8 3 17 7 20 9 9 34 -13 27 -24z"/>
<path d="M2211 946 c-16 -19 1 -52 29 -61 11 -3 20 -15 20 -26 0 -23 -15 -25
-24 -4 -3 8 -12 15 -21 15 -29 0 -12 -34 21 -42 56 -14 75 48 24 79 -32 18
-37 28 -20 38 6 3 13 -1 16 -9 3 -9 13 -16 21 -16 10 0 13 6 9 16 -3 9 -6 18
-6 20 0 11 -59 2 -69 -10z"/>
</g>
</svg>
